<svg t="1730964519156" class="icon" viewBox="0 0 1024 1024" version="1.1" xmlns="http://www.w3.org/2000/svg" p-id="1025" width="200" height="200"><path d="M524.96931715 74.87500446L945.49711534 264.77848588l0.38514057 0.15853009 0.18089937 0.0680804 0.45322097 0.22661051a27.39750008 27.39750008 0 0 1 1.99183814 1.01828833l-2.44505911-1.24489884a31.59806107 31.59806107 0 0 1 5.18383655 2.94301865l0.40653726 0.3160876c0.65648962 0.45322098 1.29060996 0.97354979 1.90138846 1.4938786l0.52130138 0.45322098a29.3426545 29.3426545 0 0 1 1.71951652 1.65240868l0.40848243 0.42987915c0.47461769 0.49795954 0.95020795 1.04065763 1.40245634 1.60669754l0.67885888 0.9054694a25.30548649 25.30548649 0 0 1 2.44505913 3.75803834 33.18238934 33.18238934 0 0 1 1.17681841 2.33126758l0.22661051 0.49795953 0.65648962 1.67477795-0.9054694-2.17273748a32.09504803 32.09504803 0 0 1 2.80685784 12.78841777v507.23986478a31.68851076 31.68851076 0 0 1-18.62874393 28.90402219l-421.09286557 190.12911934-0.31706017 0.13616081a31.30337017 31.30337017 0 0 1-2.60261662 1.01926091l2.91967679-1.15444913a31.52998067 31.52998067 0 0 1-5.61274309 1.92375772l-1.10873803 0.22661048a26.32377484 26.32377484 0 0 1-3.21436769 0.49795955l-3.03346833 0.13616081a31.84704083 31.84704083 0 0 1-9.66449976-1.51722045l-0.38514058-0.13616081a28.45177379 28.45177379 0 0 1-2.60261662-0.99591908l-0.31706016-0.13616081-421.09286557-190.12911934a31.68851076 31.68851076 0 0 1-18.62874394-28.90499477V293.68445323c0-0.54367066 0-1.08636876 0.04571113-1.60767013l-0.04571113 1.83330805a31.86941011 31.86941011 0 0 1 1.60767014-9.98155993l0.29371832-0.85975826 0.67983148-1.67477796 0.22563789-0.49795954 0.29469091-0.67983147 0.85975826-1.6514361-1.17681844 2.33126757a32.07267874 32.07267874 0 0 1 3.62187755-6.11167521l0.67885888-0.85975824c0.45224842-0.58840921 0.92783867-1.13207989 1.42579821-1.65338126l0.38514056-0.40653729a29.3426545 29.3426545 0 0 1 1.71951653-1.65338126l0.52130138-0.45224841a30.67119498 30.67119498 0 0 1 1.90138845-1.49387858l0.40653728-0.29371832a29.37961243 29.37961243 0 0 1 5.74987649-3.21436769L499.05305214 74.87500446a31.48426954 31.48426954 0 0 1 25.91626501 0zM122.45948437 342.89102476l0.02334187 437.52455756L480.40096637 942.02679262V504.50126249L122.45948437 342.89102476z m779.05768939 0L543.57471923 504.50126249v437.52553013L901.51717376 780.41558232V342.89102476zM512 138.523375L167.86425156 293.90911858 512 449.29583472l344.13574844-155.38671614L512 138.523375z" fill="" p-id="1026"></path></svg>