<svg t="1728375841018" class="icon" viewBox="0 0 1024 1024" version="1.1" xmlns="http://www.w3.org/2000/svg" p-id="1008"><path d="M873.10756587 921.08452693c-12.26111893 0-24.5211456-4.67937493-33.8809856-14.03921493L116.37727147 184.18072107c-18.71858987-18.7033088-18.71858987-49.05866347 0-67.76088 18.71858987-18.71858987 49.04229013-18.71858987 67.76088 0l722.8493088 722.86458986c18.71858987 18.7033088 18.71858987 49.05866347 0 67.76088C897.62871147 916.4040608 885.36759253 921.08452693 873.10756587 921.08452693z" p-id="1009"></path><path d="M150.25825707 921.08452693c-12.26111893 0-24.5211456-4.67937493-33.8809856-14.03921493-18.71858987-18.7033088-18.71858987-49.05866347 0-67.76088l722.8493088-722.86458987c18.71858987-18.71858987 49.04229013-18.71858987 67.76088 0 18.71858987 18.7033088 18.71858987 49.05866347 0 67.76088L184.13815147 907.04531093C174.77940267 916.4040608 162.51828373 921.08452693 150.25825707 921.08452693z" p-id="1010"></path></svg>