<svg t="1730966305236" class="icon" viewBox="0 0 1024 1024" version="1.1" xmlns="http://www.w3.org/2000/svg" p-id="1087" width="200" height="200"><path d="M512 989.86666667c-263.50878293 0-477.86666667-214.35788373-477.86666667-477.86666667S248.49121707 34.13333333 512 34.13333333 989.86666667 248.49121707 989.86666667 512 775.50878293 989.86666667 512 989.86666667zM512 102.4c-225.8607392 0-409.6 183.7392608-409.6 409.6s183.7392608 409.6 409.6 409.6 409.6-183.7392608 409.6-409.6S737.8607392 102.4 512 102.4z" fill="" p-id="1088"></path><path d="M275.5923776 525.17626453c0.03486293 0.13578133 0.20550613 0.27339733 0.27339733 0.4091776 1.6385472 3.8569152 3.89177813 7.5431872 7.03125547 10.71752747 0.03486293 0.03486293 0.06789013 0.03486293 0.10275307 0.06789013s0.03486293 0.06789013 0.06789013 0.10275307l169.5061056 169.9831744c13.31204587 13.3469088 34.88471573 13.41479893 48.2646528 0.06789013 13.3469088-13.31204587 13.379936-34.88471573 0.06789013-48.2646528l-110.21566613-110.5239264 325.3937408 0c18.84237013 0 34.132416-15.29188053 34.132416-34.13425066s-15.29188053-34.13425067-34.132416-34.13425067L388.8814656 479.46759893l113.18633493-111.9569664c13.41479893-13.27718293 13.517552-34.84985387 0.27339734-48.2646528-6.6569408-6.7578592-15.46252373-10.1377056-24.26810774-10.1377056-8.66980267 0-17.33960533 3.3101216-23.99654506 9.86430827l-170.93914667 169.06206507C273.067584 498.04024213 270.54095573 512.75046507 275.5923776 525.17626453z" fill="" p-id="1089"></path></svg>