<svg t="1728375318343" class="icon" viewBox="0 0 1024 1024" version="1.1" xmlns="http://www.w3.org/2000/svg" p-id="1106" width="200" height="200"><path d="M9.31317116 494.29824238h394.96822266V99.33001971H9.31317116v394.96822267z m71.81240411-323.15581855h251.34341444v251.34341443H81.12557527V171.14242383zM9.31317116 996.98507122h394.96822266V602.01684855H9.31317116v394.96822267z m71.81240411-323.15581855h251.34341444v251.34341443H81.12557527v-251.34341443zM528.66047776 207.0486259H978.78062678a35.90620206 35.90620206 0 1 0 0-71.81240413H528.66047776a35.90620206 35.90620206 0 0 0 0 71.81240413zM978.78062678 637.92305061H528.66047776a35.90620206 35.90620206 0 1 0 0 71.81240412H978.78062678a35.90620206 35.90620206 0 1 0 0-71.81240412zM978.78062678 386.5796362H528.66047776a35.90620206 35.90620206 0 0 0 0 71.81240412H978.78062678a35.90620206 35.90620206 0 1 0 0-71.81240412zM978.78062678 889.26646505H528.66047776a35.90620206 35.90620206 0 1 0 0 71.81240411H978.78062678a35.90620206 35.90620206 0 1 0 0-71.81240411z" p-id="1107"></path></svg>