<svg t="1728375595883" class="icon" viewBox="0 0 1024 1024" version="1.1" xmlns="http://www.w3.org/2000/svg" p-id="977" width="200" height="200"><path d="M993.12277813 957.30592915l-166.80578749-166.80578748A456.32421527 456.32421527 0 0 0 940.99596966 488.16465101C940.99596966 234.27643063 734.94176125 28.22222222 481.0535399 28.22222222S21.11111111 234.27643063 21.11111111 488.16465101 227.16531952 948.10708077 481.0535399 948.10708077c115.90549175 0 221.38562238-43.54121645 302.33549066-114.06572265l166.80578748 166.80578748a29.7429434 29.7429434 0 0 0 42.92796009 0c12.26513118-12.26513118 12.26513118-31.88934164 0-43.54121645zM481.0535399 886.78142296C261.50768759 886.78142296 82.43676796 707.71050429 82.43676796 488.16465101S261.50768759 89.54787907 481.0535399 89.54787907 879.67031185 268.6187987 879.67031185 488.16465101 700.59939318 886.78142296 481.0535399 886.78142296z" p-id="978"></path></svg>