<?xml version="1.0" standalone="no"?><!DOCTYPE svg PUBLIC "-//W3C//DTD SVG 1.1//EN" "http://www.w3.org/Graphics/SVG/1.1/DTD/svg11.dtd"><svg t="1739522825844" class="icon" viewBox="0 0 1024 1024" version="1.1" xmlns="http://www.w3.org/2000/svg" p-id="5287" xmlns:xlink="http://www.w3.org/1999/xlink" width="200" height="200"><path d="M985.43691852 88.20053333c-6.79632592-5.21860741-15.53445925-6.91768889-23.66577777-4.61179258L46.57303703 333.35371852c-11.89357037 3.2768-20.02488889 13.95674075-20.02488888 26.2144v554.50737778c0 15.04900741 12.1362963 27.1853037 27.1853037 27.1853037h915.31946667c15.04900741 0 27.1853037-12.1362963 27.1853037-27.1853037V109.9245037c-0.12136297-8.49540741-4.00497778-16.50536297-10.8013037-21.72397037zM801.81475555 887.01155555H654.35875555V579.35644445h147.456V887.01155555z m139.9314963 0h-94.6631111V556.66157037c0-12.50038518-10.07312592-22.57351111-22.57351112-22.57351112H631.78524445c-12.50038518 0-22.57351111 10.07312592-22.57351112 22.57351112V887.01155555H80.91875555V380.44254815L941.74625185 145.48385185v741.5277037z" p-id="5288"></path><path d="M171.81961482 802.42157037h341.87946666c12.01493333 0 21.72397037-9.70903703 21.72397037-21.72397037v-90.53677037c0-12.01493333-9.70903703-21.72397037-21.72397037-21.72397038H171.81961482c-12.01493333 0-21.72397037 9.70903703-21.72397037 21.72397038v90.53677037c-0.12136297 12.01493333 9.70903703 21.72397037 21.72397037 21.72397037z m21.72397036-90.4154074h298.31016297v46.96746666H193.54358518v-46.96746666z" p-id="5289"></path></svg>